solid OpenSCAD_Model
  facet normal -0.7071067811865475 -0.7071067811865475 0
    outer loop
      vertex -19.59164810180664 -24.59164810180664 0
      vertex -24.59164810180664 -19.59164810180664 100
      vertex -24.59164810180664 -19.59164810180664 0
    endloop
  endfacet
  facet normal -0.7071067811865475 -0.7071067811865475 0
    outer loop
      vertex -24.59164810180664 -19.59164810180664 100
      vertex -19.59164810180664 -24.59164810180664 0
      vertex -19.59164810180664 -24.59164810180664 100
    endloop
  endfacet
  facet normal 0 0 -1
    outer loop
      vertex -19.59164810180664 -24.59164810180664 0
      vertex 19.59164810180664 -19.59164810180664 0
      vertex 19.59164810180664 -24.59164810180664 0
    endloop
  endfacet
  facet normal 0 0 -1
    outer loop
      vertex -19.59164810180664 -24.59164810180664 0
      vertex -19.59164810180664 -19.59164810180664 0
      vertex 19.59164810180664 -19.59164810180664 0
    endloop
  endfacet
  facet normal 0 0 -1
    outer loop
      vertex -24.59164810180664 -19.59164810180664 0
      vertex -19.59164810180664 -19.59164810180664 0
      vertex -19.59164810180664 -24.59164810180664 0
    endloop
  endfacet
  facet normal 0 0 -1
    outer loop
      vertex -19.59164810180664 -19.59164810180664 0
      vertex -24.59164810180664 -19.59164810180664 0
      vertex -19.59164810180664 19.59164810180664 0
    endloop
  endfacet
  facet normal 0 0 -1
    outer loop
      vertex -24.59164810180664 19.59164810180664 0
      vertex -19.59164810180664 19.59164810180664 0
      vertex -24.59164810180664 -19.59164810180664 0
    endloop
  endfacet
  facet normal 0 0 -1
    outer loop
      vertex -19.59164810180664 19.59164810180664 0
      vertex -24.59164810180664 19.59164810180664 0
      vertex -19.59164810180664 24.59164810180664 0
    endloop
  endfacet
  facet normal 0 0 -1
    outer loop
      vertex 19.59164810180664 -19.59164810180664 0
      vertex 24.59164810180664 -19.59164810180664 0
      vertex 19.59164810180664 -24.59164810180664 0
    endloop
  endfacet
  facet normal 0 0 -1
    outer loop
      vertex 24.59164810180664 -19.59164810180664 0
      vertex 19.59164810180664 -19.59164810180664 0
      vertex 24.59164810180664 19.59164810180664 0
    endloop
  endfacet
  facet normal 0 0 -1
    outer loop
      vertex 19.59164810180664 19.59164810180664 0
      vertex 24.59164810180664 19.59164810180664 0
      vertex 19.59164810180664 -19.59164810180664 0
    endloop
  endfacet
  facet normal 0 0 -1
    outer loop
      vertex 19.59164810180664 19.59164810180664 0
      vertex 19.59164810180664 24.59164810180664 0
      vertex 24.59164810180664 19.59164810180664 0
    endloop
  endfacet
  facet normal 0 0 -1
    outer loop
      vertex -19.59164810180664 19.59164810180664 0
      vertex 19.59164810180664 24.59164810180664 0
      vertex 19.59164810180664 19.59164810180664 0
    endloop
  endfacet
  facet normal 0 0 -1
    outer loop
      vertex 19.59164810180664 24.59164810180664 0
      vertex -19.59164810180664 19.59164810180664 0
      vertex -19.59164810180664 24.59164810180664 0
    endloop
  endfacet
  facet normal 0.7071067811865475 0.7071067811865475 0
    outer loop
      vertex 24.59164810180664 19.59164810180664 100
      vertex 19.59164810180664 24.59164810180664 0
      vertex 19.59164810180664 24.59164810180664 100
    endloop
  endfacet
  facet normal 0.7071067811865475 0.7071067811865475 0
    outer loop
      vertex 19.59164810180664 24.59164810180664 0
      vertex 24.59164810180664 19.59164810180664 100
      vertex 24.59164810180664 19.59164810180664 0
    endloop
  endfacet
  facet normal 0 1 0
    outer loop
      vertex 19.59164810180664 24.59164810180664 0
      vertex -19.59164810180664 24.59164810180664 100
      vertex 19.59164810180664 24.59164810180664 100
    endloop
  endfacet
  facet normal 0 1 0
    outer loop
      vertex -19.59164810180664 24.59164810180664 100
      vertex 19.59164810180664 24.59164810180664 0
      vertex -19.59164810180664 24.59164810180664 0
    endloop
  endfacet
  facet normal 0 0 1
    outer loop
      vertex -19.59164810180664 24.59164810180664 100
      vertex 19.59164810180664 19.59164810180664 100
      vertex 19.59164810180664 24.59164810180664 100
    endloop
  endfacet
  facet normal 0 0 1
    outer loop
      vertex -19.59164810180664 24.59164810180664 100
      vertex -19.59164810180664 19.59164810180664 100
      vertex 19.59164810180664 19.59164810180664 100
    endloop
  endfacet
  facet normal 0 0 1
    outer loop
      vertex -24.59164810180664 19.59164810180664 100
      vertex -19.59164810180664 19.59164810180664 100
      vertex -19.59164810180664 24.59164810180664 100
    endloop
  endfacet
  facet normal 0 0 1
    outer loop
      vertex -19.59164810180664 19.59164810180664 100
      vertex -24.59164810180664 19.59164810180664 100
      vertex -19.59164810180664 -19.59164810180664 100
    endloop
  endfacet
  facet normal 0 0 1
    outer loop
      vertex -24.59164810180664 -19.59164810180664 100
      vertex -19.59164810180664 -19.59164810180664 100
      vertex -24.59164810180664 19.59164810180664 100
    endloop
  endfacet
  facet normal 0 0 1
    outer loop
      vertex -19.59164810180664 -19.59164810180664 100
      vertex -24.59164810180664 -19.59164810180664 100
      vertex -19.59164810180664 -24.59164810180664 100
    endloop
  endfacet
  facet normal 0 0 1
    outer loop
      vertex 19.59164810180664 19.59164810180664 100
      vertex 24.59164810180664 19.59164810180664 100
      vertex 19.59164810180664 24.59164810180664 100
    endloop
  endfacet
  facet normal 0 0 1
    outer loop
      vertex 24.59164810180664 19.59164810180664 100
      vertex 19.59164810180664 19.59164810180664 100
      vertex 24.59164810180664 -19.59164810180664 100
    endloop
  endfacet
  facet normal 0 0 1
    outer loop
      vertex 19.59164810180664 -19.59164810180664 100
      vertex 24.59164810180664 -19.59164810180664 100
      vertex 19.59164810180664 19.59164810180664 100
    endloop
  endfacet
  facet normal 0 0 1
    outer loop
      vertex 19.59164810180664 -19.59164810180664 100
      vertex 19.59164810180664 -24.59164810180664 100
      vertex 24.59164810180664 -19.59164810180664 100
    endloop
  endfacet
  facet normal 0 0 1
    outer loop
      vertex -19.59164810180664 -19.59164810180664 100
      vertex 19.59164810180664 -24.59164810180664 100
      vertex 19.59164810180664 -19.59164810180664 100
    endloop
  endfacet
  facet normal 0 0 1
    outer loop
      vertex 19.59164810180664 -24.59164810180664 100
      vertex -19.59164810180664 -19.59164810180664 100
      vertex -19.59164810180664 -24.59164810180664 100
    endloop
  endfacet
  facet normal -1 0 0
    outer loop
      vertex -24.59164810180664 -19.59164810180664 0
      vertex -24.59164810180664 19.59164810180664 100
      vertex -24.59164810180664 19.59164810180664 0
    endloop
  endfacet
  facet normal -1 0 0
    outer loop
      vertex -24.59164810180664 19.59164810180664 100
      vertex -24.59164810180664 -19.59164810180664 0
      vertex -24.59164810180664 -19.59164810180664 100
    endloop
  endfacet
  facet normal 0 -1 0
    outer loop
      vertex -19.59164810180664 -24.59164810180664 0
      vertex 19.59164810180664 -24.59164810180664 100
      vertex -19.59164810180664 -24.59164810180664 100
    endloop
  endfacet
  facet normal 0 -1 0
    outer loop
      vertex 19.59164810180664 -24.59164810180664 100
      vertex -19.59164810180664 -24.59164810180664 0
      vertex 19.59164810180664 -24.59164810180664 0
    endloop
  endfacet
  facet normal -0.7071067811865475 0.7071067811865475 0
    outer loop
      vertex -24.59164810180664 19.59164810180664 0
      vertex -19.59164810180664 24.59164810180664 100
      vertex -19.59164810180664 24.59164810180664 0
    endloop
  endfacet
  facet normal -0.7071067811865475 0.7071067811865475 0
    outer loop
      vertex -19.59164810180664 24.59164810180664 100
      vertex -24.59164810180664 19.59164810180664 0
      vertex -24.59164810180664 19.59164810180664 100
    endloop
  endfacet
  facet normal 0.7071067811865475 -0.7071067811865475 0
    outer loop
      vertex 19.59164810180664 -24.59164810180664 100
      vertex 24.59164810180664 -19.59164810180664 0
      vertex 24.59164810180664 -19.59164810180664 100
    endloop
  endfacet
  facet normal 0.7071067811865475 -0.7071067811865475 0
    outer loop
      vertex 24.59164810180664 -19.59164810180664 0
      vertex 19.59164810180664 -24.59164810180664 100
      vertex 19.59164810180664 -24.59164810180664 0
    endloop
  endfacet
  facet normal 1 0 0
    outer loop
      vertex 24.59164810180664 -19.59164810180664 100
      vertex 24.59164810180664 19.59164810180664 0
      vertex 24.59164810180664 19.59164810180664 100
    endloop
  endfacet
  facet normal 1 0 0
    outer loop
      vertex 24.59164810180664 19.59164810180664 0
      vertex 24.59164810180664 -19.59164810180664 100
      vertex 24.59164810180664 -19.59164810180664 0
    endloop
  endfacet
  facet normal -1 0 0
    outer loop
      vertex 19.59164810180664 -19.59164810180664 0
      vertex 19.59164810180664 19.59164810180664 100
      vertex 19.59164810180664 19.59164810180664 0
    endloop
  endfacet
  facet normal -1 0 0
    outer loop
      vertex 19.59164810180664 19.59164810180664 100
      vertex 19.59164810180664 -19.59164810180664 0
      vertex 19.59164810180664 -19.59164810180664 100
    endloop
  endfacet
  facet normal 1 0 0
    outer loop
      vertex -19.59164810180664 -19.59164810180664 100
      vertex -19.59164810180664 19.59164810180664 0
      vertex -19.59164810180664 19.59164810180664 100
    endloop
  endfacet
  facet normal 1 0 0
    outer loop
      vertex -19.59164810180664 19.59164810180664 0
      vertex -19.59164810180664 -19.59164810180664 100
      vertex -19.59164810180664 -19.59164810180664 0
    endloop
  endfacet
  facet normal 0 -1 0
    outer loop
      vertex -19.59164810180664 19.59164810180664 0
      vertex 19.59164810180664 19.59164810180664 100
      vertex -19.59164810180664 19.59164810180664 100
    endloop
  endfacet
  facet normal 0 -1 0
    outer loop
      vertex 19.59164810180664 19.59164810180664 100
      vertex -19.59164810180664 19.59164810180664 0
      vertex 19.59164810180664 19.59164810180664 0
    endloop
  endfacet
  facet normal 0 1 0
    outer loop
      vertex 19.59164810180664 -19.59164810180664 0
      vertex -19.59164810180664 -19.59164810180664 100
      vertex 19.59164810180664 -19.59164810180664 100
    endloop
  endfacet
  facet normal 0 1 0
    outer loop
      vertex -19.59164810180664 -19.59164810180664 100
      vertex 19.59164810180664 -19.59164810180664 0
      vertex -19.59164810180664 -19.59164810180664 0
    endloop
  endfacet
endsolid OpenSCAD_Model
